<svg width="614" height="250" viewBox="0 0 614 250" fill="none" xmlns="http://www.w3.org/2000/svg">
<g clip-path="url(#clip0_636_292)">
<path d="M35 50H0V250H35V50Z" fill="#D9D9D9"/>
<path d="M150 125C150 166.421 116.421 200 75 200C33.5786 200 0 166.421 0 125C0 83.5786 33.5786 50 75 50C116.421 50 150 83.5786 150 125ZM34.5 125C34.5 147.368 52.6325 165.5 75 165.5C97.3675 165.5 115.5 147.368 115.5 125C115.5 102.632 97.3675 84.5 75 84.5C52.6325 84.5 34.5 102.632 34.5 125Z" fill="#D9D9D9"/>
<path d="M232 50H267V200H232V50Z" fill="#D9D9D9"/>
<path d="M117 125C117 166.421 150.579 200 192 200C233.421 200 267 166.421 267 125C267 83.5786 233.421 50 192 50C150.579 50 117 83.5786 117 125ZM232.5 125C232.5 147.368 214.368 165.5 192 165.5C169.632 165.5 151.5 147.368 151.5 125C151.5 102.632 169.632 84.5 192 84.5C214.368 84.5 232.5 102.632 232.5 125Z" fill="#D9D9D9"/>
<path d="M579 50H614V200H579V50Z" fill="#D9D9D9"/>
<path d="M464 125C464 166.421 497.579 200 539 200C580.421 200 614 166.421 614 125C614 83.5786 580.421 50 539 50C497.579 50 464 83.5786 464 125ZM579.5 125C579.5 147.368 561.368 165.5 539 165.5C516.632 165.5 498.5 147.368 498.5 125C498.5 102.632 516.632 84.5 539 84.5C561.368 84.5 579.5 102.632 579.5 125Z" fill="#D9D9D9"/>
<path d="M462 0H497V200H462V0Z" fill="#D9D9D9"/>
<path d="M347 125C347 166.421 380.579 200 422 200C463.421 200 497 166.421 497 125C497 83.5786 463.421 50 422 50C380.579 50 347 83.5786 347 125ZM462.5 125C462.5 147.368 444.368 165.5 422 165.5C399.632 165.5 381.5 147.368 381.5 125C381.5 102.632 399.632 84.5 422 84.5C444.368 84.5 462.5 102.632 462.5 125Z" fill="#D9D9D9"/>
<path d="M232 50H267V200H232V50Z" fill="#D9D9D9"/>
<path d="M232 125C232 115.151 233.94 105.398 237.709 96.2987C241.478 87.1993 247.003 78.9314 253.967 71.967C260.931 65.0026 269.199 59.4781 278.299 55.709C287.398 51.9399 297.151 50 307 50C316.849 50 326.602 51.9399 335.701 55.709C344.801 59.4781 353.069 65.0026 360.033 71.967C366.997 78.9314 372.522 87.1993 376.291 96.2987C380.06 105.398 382 115.151 382 125H347.5C347.5 119.681 346.452 114.415 344.417 109.501C342.382 104.588 339.399 100.123 335.638 96.3622C331.877 92.6014 327.412 89.6182 322.499 87.5829C317.585 85.5476 312.319 84.5 307 84.5C301.681 84.5 296.415 85.5476 291.501 87.5829C286.588 89.6182 282.123 92.6014 278.362 96.3622C274.601 100.123 271.618 104.588 269.583 109.501C267.548 114.415 266.5 119.681 266.5 125H232Z" fill="#D9D9D9"/>
</g>
<defs>
<clipPath id="clip0_636_292">
<rect width="614" height="250" fill="white"/>
</clipPath>
</defs>
</svg>
