<svg width="614" height="210" viewBox="0 0 614 210" fill="none" xmlns="http://www.w3.org/2000/svg">
<rect y="30" width="35" height="180" fill="#d9d9d9"/>
<path d="M150 105C150 146.421 116.421 180 75 180C33.5786 180 0 146.421 0 105C0 63.5786 33.5786 30 75 30C116.421 30 150 63.5786 150 105ZM34.5 105C34.5 127.368 52.6325 145.5 75 145.5C97.3675 145.5 115.5 127.368 115.5 105C115.5 82.6325 97.3675 64.5 75 64.5C52.6325 64.5 34.5 82.6325 34.5 105Z" fill="#d9d9d9"/>
<rect width="35" height="150" transform="matrix(-1 0 0 1 267 30)" fill="#d9d9d9"/>
<path d="M117 105C117 146.421 150.579 180 192 180C233.421 180 267 146.421 267 105C267 63.5786 233.421 30 192 30C150.579 30 117 63.5786 117 105ZM232.5 105C232.5 127.368 214.368 145.5 192 145.5C169.632 145.5 151.5 127.368 151.5 105C151.5 82.6325 169.632 64.5 192 64.5C214.368 64.5 232.5 82.6325 232.5 105Z" fill="#d9d9d9"/>
<rect width="35" height="150" transform="matrix(-1 0 0 1 614 30)" fill="#d9d9d9"/>
<path d="M464 105C464 146.421 497.579 180 539 180C580.421 180 614 146.421 614 105C614 63.5786 580.421 30 539 30C497.579 30 464 63.5786 464 105ZM579.5 105C579.5 127.368 561.368 145.5 539 145.5C516.632 145.5 498.5 127.368 498.5 105C498.5 82.6325 516.632 64.5 539 64.5C561.368 64.5 579.5 82.6325 579.5 105Z" fill="#d9d9d9"/>
<rect width="35" height="180" transform="matrix(-1 0 0 1 499 0)" fill="#d9d9d9"/>
<path d="M347 105C347 146.421 380.579 180 422 180C463.421 180 497 146.421 497 105C497 63.5786 463.421 30 422 30C380.579 30 347 63.5786 347 105ZM462.5 105C462.5 127.368 444.368 145.5 422 145.5C399.632 145.5 381.5 127.368 381.5 105C381.5 82.6325 399.632 64.5 422 64.5C444.368 64.5 462.5 82.6325 462.5 105Z" fill="#d9d9d9"/>
<rect width="35" height="150" transform="matrix(-1 0 0 1 267 30)" fill="#d9d9d9"/>
<path d="M232 105C232 95.1509 233.94 85.3982 237.709 76.2987C241.478 67.1993 247.003 58.9314 253.967 51.967C260.931 45.0026 269.199 39.4781 278.299 35.709C287.398 31.9399 297.151 30 307 30C316.849 30 326.602 31.9399 335.701 35.709C344.801 39.4781 353.069 45.0026 360.033 51.967C366.997 58.9314 372.522 67.1993 376.291 76.2987C380.06 85.3982 382 95.1509 382 105L347.5 105C347.5 99.6815 346.452 94.415 344.417 89.5013C342.382 84.5876 339.399 80.123 335.638 76.3622C331.877 72.6014 327.412 69.6182 322.499 67.5829C317.585 65.5476 312.319 64.5 307 64.5C301.681 64.5 296.415 65.5476 291.501 67.5829C286.588 69.6182 282.123 72.6014 278.362 76.3622C274.601 80.1229 271.618 84.5876 269.583 89.5013C267.548 94.415 266.5 99.6815 266.5 105H232Z" fill="#d9d9d9"/>
</svg>
