<svg width="30" height="30" viewBox="0 0 30 30" fill="none" xmlns="http://www.w3.org/2000/svg">
<path d="M17.551 2.55102C17.551 1.14213 16.4089 0 15 0C13.5911 0 12.449 1.14213 12.449 2.55102V5.34759L11.0673 2.91618C10.3712 1.69126 8.81391 1.26256 7.58899 1.95864C6.36407 2.65473 5.93536 4.21201 6.63145 5.43694L8.20374 8.20373L5.43694 6.63144C4.21202 5.93536 2.65473 6.36407 1.95865 7.58899C1.26256 8.81391 1.69127 10.3712 2.91619 11.0673L5.3476 12.449H2.55102C1.14213 12.449 0 13.5911 0 15C0 16.4089 1.14213 17.551 2.55102 17.551H5.34759L2.91619 18.9327C1.69127 19.6288 1.26256 21.1861 1.95865 22.411C2.65473 23.6359 4.21202 24.0646 5.43694 23.3685L8.20374 21.7963L6.63145 24.5631C5.93536 25.788 6.36407 27.3453 7.58899 28.0414C8.81391 28.7374 10.3712 28.3087 11.0673 27.0838L12.449 24.6524V27.449C12.449 28.8579 13.5911 30 15 30C16.4089 30 17.551 28.8579 17.551 27.449V24.6524L18.9327 27.0838C19.6288 28.3087 21.1861 28.7374 22.411 28.0414C23.6359 27.3453 24.0646 25.788 23.3686 24.5631L21.7963 21.7963L24.5631 23.3685C25.788 24.0646 27.3453 23.6359 28.0414 22.411C28.7374 21.1861 28.3087 19.6288 27.0838 18.9327L24.6524 17.551H27.449C28.8579 17.551 30 16.4089 30 15C30 13.5911 28.8579 12.449 27.449 12.449H24.6524L27.0838 11.0673C28.3087 10.3712 28.7374 8.81391 28.0414 7.58899C27.3453 6.36407 25.788 5.93536 24.5631 6.63144L21.7963 8.20374L23.3686 5.43694C24.0646 4.21201 23.6359 2.65473 22.411 1.95864C21.1861 1.26256 19.6288 1.69126 18.9327 2.91618L17.551 5.34759V2.55102Z" fill="#336BB7"/>
</svg>
