<svg width="17" height="17" viewBox="0 0 17 17" fill="none" xmlns="http://www.w3.org/2000/svg">
<path fill-rule="evenodd" clip-rule="evenodd" d="M2.02876 2.02876C2.28911 1.76841 2.71122 1.76841 2.97157 2.02876L5.8335 4.89069V3.67175C5.8335 3.30356 6.13197 3.00509 6.50016 3.00509C6.86835 3.00509 7.16683 3.30356 7.16683 3.67175V6.50016C7.16683 6.86835 6.86835 7.16683 6.50017 7.16683L3.67174 7.16685C3.30355 7.16685 3.00507 6.86837 3.00507 6.50018C3.00507 6.13199 3.30354 5.83352 3.67173 5.83351L4.8907 5.83351L2.02876 2.97157C1.76841 2.71122 1.76841 2.28911 2.02876 2.02876ZM14.9716 2.02876C15.2319 2.28911 15.2319 2.71122 14.9716 2.97157L12.1096 5.8335L13.3286 5.83351C13.6968 5.83351 13.9953 6.13199 13.9953 6.50018C13.9952 6.86837 13.6968 7.16685 13.3286 7.16684L10.5002 7.16683C10.132 7.16683 9.8335 6.86835 9.8335 6.50016L9.83349 3.67175C9.83349 3.30356 10.132 3.00508 10.5002 3.00508C10.8683 3.00508 11.1668 3.30356 11.1668 3.67175L11.1668 4.89069L14.0288 2.02876C14.2891 1.76841 14.7112 1.76841 14.9716 2.02876ZM3.67173 9.83352L6.50016 9.8335C6.67697 9.83349 6.84654 9.90373 6.97157 10.0288C7.09659 10.1538 7.16683 10.3233 7.16683 10.5002L7.16683 13.3286C7.16683 13.6968 6.86836 13.9953 6.50017 13.9953C6.13198 13.9953 5.8335 13.6968 5.8335 13.3286L5.8335 12.1096L2.97157 14.9716C2.71122 15.2319 2.28911 15.2319 2.02876 14.9716C1.76841 14.7112 1.76841 14.2891 2.02876 14.0288L4.89068 11.1668L3.67174 11.1668C3.30355 11.1669 3.00507 10.8684 3.00507 10.5002C3.00507 10.132 3.30354 9.83352 3.67173 9.83352ZM9.8335 10.5002C9.8335 10.132 10.132 9.8335 10.5002 9.8335H13.3286C13.6968 9.8335 13.9952 10.132 13.9952 10.5002C13.9952 10.8684 13.6968 11.1668 13.3286 11.1668H12.1096L14.9716 14.0288C15.2319 14.2891 15.2319 14.7112 14.9716 14.9716C14.7112 15.2319 14.2891 15.2319 14.0288 14.9716L11.1668 12.1096L11.1668 13.3286C11.1668 13.6968 10.8683 13.9953 10.5002 13.9953C10.132 13.9953 9.83349 13.6968 9.83349 13.3286L9.8335 10.5002Z" fill="black"/>
</svg>
