<svg width="358" height="349" viewBox="0 0 358 349" fill="none" xmlns="http://www.w3.org/2000/svg">
<path d="M0.967043 174.477C0.967043 264.01 179.142 174.477 179.142 174.477C179.142 174.477 0.967042 84.9443 0.967043 174.477Z" fill="#E55733"/>
<path d="M357.317 174.477C357.317 264.01 179.142 174.477 179.142 174.477C179.142 174.477 357.317 84.9443 357.317 174.477Z" fill="#E55733"/>
<path d="M90.0546 328.781C167.592 373.547 179.142 174.477 179.142 174.477C179.142 174.477 12.5169 284.015 90.0546 328.781Z" fill="#E55733"/>
<path d="M268.229 20.1732C345.767 64.9396 179.142 174.477 179.142 174.477C179.142 174.477 190.692 -24.5932 268.229 20.1732Z" fill="#E55733"/>
<path d="M268.229 328.781C190.691 373.547 179.142 174.477 179.142 174.477C179.142 174.477 345.767 284.015 268.229 328.781Z" fill="#E55733"/>
<path d="M90.0543 20.1732C12.5166 64.9396 179.142 174.477 179.142 174.477C179.142 174.477 167.592 -24.5932 90.0543 20.1732Z" fill="#E55733"/>
</svg>
